<svg version="1.0" xmlns="http://www.w3.org/2000/svg"
     width="200.000000pt" height="200.000000pt" viewBox="0 0 200.000000 200.000000"
     preserveAspectRatio="xMidYMid meet">

    <g transform="translate(0.000000,200.000000) scale(0.100000,-0.100000)"
       fill="#000000" stroke="none">
        <path d="M875 1989 c-403 -51 -738 -347 -842 -744 -22 -85 -26 -122 -26 -245
0 -126 4 -158 27 -245 101 -383 401 -664 786 -736 94 -18 289 -15 385 6 306
65 579 287 703 570 65 148 77 212 77 405 0 193 -12 257 -77 405 -87 198 -270
390 -463 488 -80 39 -232 84 -330 96 -101 12 -140 12 -240 0z m385 -158 c99
-33 210 -91 270 -141 l35 -29 -40 -40 c-21 -23 -43 -41 -47 -41 -4 0 -29 15
-55 34 -129 91 -257 131 -428 131 -171 0 -299 -40 -428 -131 -26 -19 -50 -34
-54 -34 -10 0 -83 72 -83 82 0 11 118 92 175 120 133 66 239 88 415 84 133 -2
153 -5 240 -35z m-116 -226 c78 -21 147 -51 201 -89 l45 -32 -43 -42 -43 -42
-78 39 c-168 85 -353 76 -508 -26 l-28 -17 -45 44 -45 44 45 32 c52 37 122 68
197 88 71 20 229 20 302 1z m-760 -171 c-179 -233 -179 -635 0 -868 l38 -49
-45 -45 -45 -44 -51 72 c-63 90 -92 152 -127 266 -25 80 -27 104 -27 234 0
128 3 155 27 234 34 114 64 175 127 266 l51 72 45 -44 45 -45 -38 -49z m1361
11 c119 -190 154 -457 89 -681 -32 -110 -61 -173 -125 -264 l-51 -72 -45 44
-45 45 38 49 c179 233 179 622 0 869 l-36 50 43 43 42 43 23 -28 c12 -15 43
-59 67 -98z m-1159 -125 c49 -48 80 -70 96 -70 13 0 48 18 78 40 146 109 324
109 470 0 30 -22 65 -40 78 -40 16 0 48 23 98 72 71 68 75 71 89 52 35 -44 65
-104 91 -179 24 -70 28 -95 28 -195 0 -97 -5 -127 -27 -195 -21 -63 -69 -154
-103 -194 -2 -2 -37 28 -78 67 -50 49 -82 72 -98 72 -13 0 -48 -18 -78 -40
-147 -110 -328 -109 -473 3 -69 53 -86 50 -173 -35 -71 -68 -75 -71 -89 -52
-35 44 -65 104 -91 179 -24 70 -28 95 -28 195 0 96 5 128 26 193 22 65 93 197
107 197 3 0 37 -31 77 -70z m152 -745 c137 -90 328 -96 488 -14 l77 40 44 -43
43 -42 -45 -32 c-96 -68 -217 -104 -350 -104 -133 0 -245 33 -347 103 l-47 32
41 42 c23 24 46 43 50 43 5 0 26 -11 46 -25z m-171 -189 c129 -91 257 -131
428 -131 171 0 299 40 428 131 26 19 51 34 55 34 4 0 26 -18 47 -41 l40 -40
-35 -29 c-59 -49 -171 -108 -270 -142 -93 -32 -99 -33 -265 -33 -164 1 -173 2
-265 33 -93 31 -214 95 -275 146 l-30 25 40 40 c21 23 43 41 47 41 4 0 29 -15
55 -34z"/>
        <path d="M930 1241 c-74 -24 -137 -79 -164 -146 -14 -32 -18 -34 -67 -37 -46
-3 -55 -7 -69 -30 -13 -25 -13 -31 0 -55 14 -24 23 -28 69 -31 49 -3 53 -5 67
-37 36 -88 136 -155 229 -155 93 0 193 67 229 155 14 32 18 34 67 37 46 3 55
7 69 31 13 24 13 30 0 55 -14 23 -23 27 -69 30 -49 3 -53 5 -67 37 -20 48 -70
103 -117 127 -44 22 -137 32 -177 19z m131 -138 c31 -18 59 -67 59 -103 0 -12
-7 -36 -15 -54 -42 -88 -178 -88 -220 0 -19 40 -19 68 0 108 29 62 114 85 176
49z"/>
    </g>
</svg>
